<svg width="81" height="95" viewBox="0 0 81 95" fill="none" xmlns="http://www.w3.org/2000/svg">
<path d="M66.5765 21.2663C66.0751 20.3979 65.1408 19.8585 64.1379 19.8585H16.194C15.1911 19.8585 14.2568 20.3979 13.7555 21.2663L10.334 27.1923C9.95148 27.8548 10.1785 28.7018 10.8409 29.0843C11.5032 29.4668 12.3504 29.2398 12.7329 28.5773L15.3679 24.0135L25.368 41.3339H5.36788L9.59592 34.0106C9.97841 33.3481 9.75138 32.5009 9.08894 32.1186C8.4265 31.7357 7.57927 31.9631 7.19696 32.6256L2.08001 41.4885C1.59443 42.3293 1.70287 43.3808 2.34945 44.1052L38.4551 84.5438C38.88 85.0198 39.4897 85.2929 40.1279 85.2933H40.1291C40.7668 85.2933 41.3763 85.0207 41.8016 84.5455L77.9806 44.1063C78.6286 43.3819 78.7375 42.3298 78.2515 41.4879L66.5765 21.2663ZM43.0879 41.3341H30.1657L40.1658 24.0135L50.1658 41.3341H50.0458C49.2808 41.3341 48.6608 41.9543 48.6608 42.7191C48.6608 43.4841 49.281 44.1041 50.0458 44.1041H50.7126L40.1322 80.0142L29.6158 44.1043H43.0879C43.8529 44.1043 44.4729 43.4841 44.4729 42.7193C44.4731 41.9543 43.8529 41.3341 43.0879 41.3341ZM52.5649 39.9491L42.5649 22.6285H62.565L52.5649 39.9491ZM53.6008 44.1043H74.2654L43.4534 78.5444L53.6008 44.1043ZM74.964 41.3341H54.9639L64.964 24.0137L74.964 41.3341ZM17.7669 22.6285H37.767L27.7669 39.9489L17.7669 22.6285ZM26.7292 44.1043L36.8169 78.5498L6.06222 44.1043H26.7292Z" fill="#A7A7A7"/>
<path d="M73.686 80.1305C73.6202 80.0866 73.5507 80.0484 73.4782 80.0163C72.5989 79.6274 71.788 79.168 71.068 78.6514C70.4467 78.2055 69.5812 78.3477 69.1351 78.9692C68.6891 79.5907 68.8313 80.456 69.4528 80.9021C69.8752 81.2053 70.3216 81.4913 70.7891 81.7586C67.7978 83.4654 65.7233 85.9106 64.7073 88.9338C63.6913 85.9112 61.6171 83.4661 58.6266 81.7593C61.6175 80.0525 63.6917 77.6072 64.7075 74.5842C64.7215 74.6259 64.7359 74.6674 64.7501 74.7089C65.0016 75.4313 65.791 75.8128 66.5137 75.5615C67.2361 75.3099 67.6177 74.5204 67.3663 73.7978C67.261 73.4959 67.1686 73.1822 67.091 72.8658L66.5152 70.5137C66.3107 69.6784 65.5673 69.0951 64.7073 69.0951C63.8473 69.0951 63.1039 69.6784 62.8992 70.5138L62.3237 72.8658C61.3424 76.8745 58.3084 78.967 55.9362 80.0165C55.8638 80.0486 55.7942 80.0868 55.7282 80.1309C55.1823 80.4947 54.8566 81.1035 54.8566 81.7595C54.8566 82.4155 55.1825 83.0242 55.7282 83.3881C55.794 83.4322 55.8636 83.4702 55.9362 83.5024C58.3084 84.5518 61.3422 86.6444 62.3237 90.6532L62.8994 93.0053C63.104 93.8405 63.8473 94.4239 64.7073 94.4239C65.5673 94.4239 66.3107 93.8405 66.5152 93.0051L67.091 90.6532C68.0723 86.6444 71.1062 84.552 73.4784 83.5024C73.5507 83.4704 73.6202 83.4322 73.6862 83.3883C74.2321 83.0246 74.558 82.4156 74.558 81.7595C74.558 81.1033 74.2319 80.4943 73.686 80.1305Z" fill="#A7A7A7"/>
<path d="M80.2546 19.1164C80.1886 19.0723 80.1191 19.0341 80.0464 19.002C78.5118 18.3232 77.5593 17.2666 77.2153 15.8617L76.9252 14.6759V14.6757C76.7465 13.9465 76.0974 13.4371 75.3468 13.4371C75.3468 13.4371 75.3466 13.4371 75.3464 13.4371C74.5956 13.4373 73.9467 13.9469 73.7683 14.6759L73.4781 15.8617C73.1341 17.2666 72.1816 18.3232 70.647 19.002C70.5745 19.0341 70.5048 19.0723 70.4388 19.1164C69.9722 19.4275 69.6935 19.9483 69.6937 20.5091C69.6937 21.07 69.9726 21.5906 70.4393 21.9015C70.5052 21.9454 70.5745 21.9836 70.647 22.0157C72.1818 22.6945 73.1341 23.7511 73.4781 25.1562L73.7683 26.3416C73.9469 27.071 74.5958 27.5804 75.3466 27.5806H75.347C76.0978 27.5806 76.7467 27.0714 76.9254 26.3418L77.2157 25.1562C77.5597 23.7513 78.5122 22.6947 80.0468 22.0159C80.1191 21.9838 80.1886 21.9458 80.2544 21.9017C80.7212 21.5908 80.9998 21.0701 81 20.5093C80.9998 19.9481 80.7212 19.4275 80.2546 19.1164ZM75.3466 22.5012C74.8844 21.7409 74.2753 21.0727 73.5299 20.5089C74.2755 19.9452 74.8846 19.277 75.3468 18.5166C75.8089 19.277 76.4181 19.9452 77.1635 20.5089C76.4179 21.0727 75.8088 21.7407 75.3466 22.5012Z" fill="#A7A7A7"/>
<path d="M5.40354 16.045L5.81941 17.7435C6.00936 18.5194 6.70002 19.0614 7.49875 19.0614C8.29766 19.0614 8.98832 18.5194 9.17809 17.7435L9.59396 16.045C10.2656 13.3019 12.3546 11.8644 13.9889 11.1413C14.0614 11.1092 14.1309 11.071 14.1967 11.0269C14.6982 10.6927 14.9975 10.1334 14.9975 9.53089C14.9975 8.9282 14.6984 8.36885 14.1969 8.03449C14.1309 7.99042 14.0614 7.95224 13.9887 7.92015C12.3546 7.19722 10.2656 5.75966 9.59396 3.01658L9.17809 1.31806C8.98813 0.542014 8.29748 0 7.49856 0C6.69984 0 6.00918 0.542014 5.81922 1.31787L5.40336 3.01639C4.73206 5.75947 2.64294 7.19704 1.00878 7.91997C0.936306 7.95206 0.866595 7.99023 0.800756 8.03431C0.299131 8.36885 0 8.9282 0 9.53089C0 10.1336 0.2995 10.6929 0.800941 11.0271C0.866779 11.071 0.936306 11.1092 1.0086 11.1413C2.64294 11.8642 4.73206 13.3019 5.40354 16.045ZM7.49856 5.39672C8.26188 7.06757 9.49474 8.46438 11.1481 9.5307C9.49492 10.597 8.26188 11.994 7.49856 13.6649C6.73524 11.994 5.5022 10.5972 3.84905 9.5307C5.5022 8.46438 6.73524 7.06739 7.49856 5.39672Z" fill="#A7A7A7"/>
</svg>
