<svg width="73" height="81" viewBox="0 0 73 81" fill="none" xmlns="http://www.w3.org/2000/svg">
<path d="M12.0552 37.505H52.2391C52.9789 37.505 53.5786 36.9053 53.5786 36.1656C53.5786 35.4259 52.9789 34.8261 52.2391 34.8261H12.0552C11.3154 34.8261 10.7157 35.4259 10.7157 36.1656C10.7157 36.9053 11.3154 37.505 12.0552 37.505Z" fill="#A7A7A7"/>
<path d="M12.0552 45.5418H52.2391C52.9789 45.5418 53.5786 44.9421 53.5786 44.2024C53.5786 43.4627 52.9789 42.8629 52.2391 42.8629H12.0552C11.3154 42.8629 10.7157 43.4627 10.7157 44.2024C10.7157 44.9421 11.3154 45.5418 12.0552 45.5418Z" fill="#A7A7A7"/>
<path d="M46.8813 52.2392C46.8813 51.4995 46.2815 50.8997 45.5418 50.8997H12.0552C11.3154 50.8997 10.7157 51.4995 10.7157 52.2392C10.7157 52.9789 11.3154 53.5786 12.0552 53.5786H45.5418C46.2815 53.5786 46.8813 52.9789 46.8813 52.2392Z" fill="#A7A7A7"/>
<path d="M22.7709 29.4682H52.2392C52.9789 29.4682 53.5786 28.8685 53.5786 28.1288C53.5786 27.3891 52.9789 26.7893 52.2392 26.7893H22.7709C22.0312 26.7893 21.4315 27.3891 21.4315 28.1288C21.4315 28.8685 22.0312 29.4682 22.7709 29.4682Z" fill="#A7A7A7"/>
<path d="M12.0552 29.4682H17.413C18.1528 29.4682 18.7525 28.8685 18.7525 28.1288C18.7525 27.3891 18.1528 26.7893 17.413 26.7893H12.0552C11.3154 26.7893 10.7157 27.3891 10.7157 28.1288C10.7157 28.8685 11.3154 29.4682 12.0552 29.4682Z" fill="#A7A7A7"/>
<path d="M72.6821 59.8621C72.5028 59.3102 71.9886 58.9365 71.4082 58.9365H64.2943V4.0184C64.2943 1.79907 62.4953 0 60.276 0H18.7525C18.7244 0 18.6989 0.0133947 18.6721 0.0147341C18.5633 0.0217663 18.4557 0.042528 18.352 0.0763495C18.3102 0.0867304 18.269 0.0996228 18.2288 0.115194C18.0871 0.172456 17.9565 0.254164 17.843 0.356298L0.429969 16.4299C0.310756 16.5447 0.214482 16.681 0.146002 16.8317C0.126245 16.8753 0.109167 16.92 0.0951022 16.9657C0.0512347 17.0854 0.025115 17.2108 0.0174131 17.338C0.0174131 17.3662 0 17.3916 0 17.4198V68.3127C0 70.5321 1.79907 72.3311 4.0184 72.3311H45.6999L43.4523 79.2468C43.2246 79.9507 43.6105 80.7058 44.3144 80.9335C44.7216 81.0653 45.1673 80.9945 45.5137 80.743L54.9181 73.9131L64.3225 80.7443C64.9211 81.179 65.7587 81.046 66.1934 80.4475C66.4449 80.1011 66.5157 79.6553 66.3839 79.2481L62.7915 68.1922L72.1945 61.3609C72.665 61.0199 72.8619 60.4146 72.6821 59.8621ZM17.4131 4.39881V14.7341C17.4131 15.4738 16.8133 16.0736 16.0736 16.0736H4.76582L17.4131 4.39881ZM46.5705 69.6522H4.0184C3.27868 69.6522 2.67893 69.0525 2.67893 68.3127V18.7525H16.0736C18.2929 18.7525 20.092 16.9534 20.092 14.7341V2.67893H60.276C61.0157 2.67893 61.6154 3.27868 61.6154 4.0184V58.9365H59.7844L56.1919 47.8819C55.9609 47.1792 55.2039 46.7966 54.5012 47.0276C54.0968 47.1606 53.7799 47.4775 53.6469 47.8819L50.0518 58.9365H38.4279C37.6882 58.9372 37.089 59.5372 37.0895 60.277C37.0898 60.7053 37.2951 61.1078 37.6417 61.3596L47.0447 68.1909L46.5705 69.6522ZM60.4286 66.5982C59.96 66.9393 59.7638 67.5431 59.9424 68.0944L62.5611 76.154L55.7057 71.1739C55.236 70.8325 54.6001 70.8325 54.1305 71.1739L47.2751 76.154L49.8938 68.0944C50.0724 67.5431 49.8763 66.9393 49.4075 66.5982L42.5508 61.6154H51.0256C51.6059 61.6154 52.1201 61.2417 52.2994 60.6898L54.9181 52.6303L57.5367 60.6898C57.7161 61.2417 58.2303 61.6154 58.8106 61.6154H67.2854L60.4286 66.5982Z" fill="#A7A7A7"/>
</svg>
