<svg width="24" height="24" viewBox="0 0 24 24" fill="none" xmlns="http://www.w3.org/2000/svg">
<path d="M17.3767 0H6.62299C2.97108 0 0 2.97122 0 6.62313V17.3769C0 21.0289 2.97108 24 6.62299 24H17.3767C21.0289 24 24 21.0288 24 17.3769V6.62313C24.0001 2.97122 21.0289 0 17.3767 0ZM21.8707 17.3769C21.8707 19.8548 19.8548 21.8706 17.3769 21.8706H6.62299C4.14522 21.8707 2.1294 19.8548 2.1294 17.3769V6.62313C2.1294 4.14537 4.14522 2.1294 6.62299 2.1294H17.3767C19.8546 2.1294 21.8706 4.14537 21.8706 6.62313V17.3769H21.8707Z" fill="white"/>
<path d="M12 5.81616C8.58997 5.81616 5.8158 8.59034 5.8158 12.0004C5.8158 15.4102 8.58997 18.1843 12 18.1843C15.41 18.1843 18.1842 15.4102 18.1842 12.0004C18.1842 8.59034 15.41 5.81616 12 5.81616ZM12 16.0547C9.76426 16.0547 7.94519 14.2359 7.94519 12.0002C7.94519 9.76435 9.76412 7.94542 12 7.94542C14.2359 7.94542 16.0548 9.76435 16.0548 12.0002C16.0548 14.2359 14.2357 16.0547 12 16.0547Z" fill="white"/>
<path d="M18.4436 4.0105C18.0333 4.0105 17.6303 4.17659 17.3405 4.46761C17.0494 4.75721 16.882 5.16037 16.882 5.57206C16.882 5.98246 17.0495 6.38548 17.3405 6.6765C17.6301 6.9661 18.0333 7.13361 18.4436 7.13361C18.8553 7.13361 19.257 6.9661 19.548 6.6765C19.839 6.38548 20.0051 5.98232 20.0051 5.57206C20.0051 5.16037 19.839 4.75721 19.548 4.46761C19.2584 4.17659 18.8553 4.0105 18.4436 4.0105Z" fill="white"/>
</svg>
