<svg width="542" height="446" viewBox="0 0 542 446" fill="none" xmlns="http://www.w3.org/2000/svg">
<path d="M180.462 412.626L231.294 394.051M180.462 412.626L199.039 394.051H231.294M180.462 412.626H212.717V444.979L231.294 426.404V394.051M231.089 393.949H263.344V426.302L281.921 407.727V375.374M231.089 393.949L249.667 375.374M231.089 393.949V361.596H198.835L217.412 343.021H249.667M249.667 375.374H281.921M249.667 375.374V343.021M281.921 375.374L300.498 356.799V324.446M281.921 375.374V343.021H249.667M249.667 343.021L268.244 324.446M249.667 343.021V310.668H217.412L235.989 292.094H268.244M268.244 324.446H300.498M268.244 324.446V292.094M300.498 324.446L351.33 305.872M300.498 324.446L319.075 305.872M300.498 324.446H332.753V356.799L351.33 338.224V305.872M300.498 324.446V292.094H268.244M198.733 361.698L249.564 343.123H217.412M198.733 361.698L217.412 343.123M198.733 361.698L147.901 380.273M198.733 361.698H166.478M198.733 361.698V394.051L180.156 412.626V380.273H147.901M217.412 343.123L198.835 361.698V329.345H166.58M217.412 343.123V310.77M147.901 380.273L166.478 361.698M147.901 380.273V347.92H115.647M166.478 361.698V329.345M453.095 268.62H485.35V300.973L503.927 282.398V250.045M453.095 268.62L471.672 250.045M453.095 268.62V236.267H420.84M471.672 250.045H503.927M471.672 250.045V217.692M503.927 250.045L522.606 231.47V199.117M503.927 250.045V217.692H471.672M351.33 305.872H319.075M351.33 305.872L402.161 287.297H369.907L351.33 305.872ZM319.075 305.872V273.519M351.432 305.872H383.686V338.224L402.263 319.65V287.297M351.432 305.872L370.009 287.297M351.432 305.872V273.519H319.177L337.754 254.944M370.009 287.297H402.263M370.009 287.297V254.944M402.263 287.297L420.84 268.722V236.369M402.263 287.297V254.944H370.009M471.672 217.692L522.504 199.117H490.249M471.672 217.692L490.249 199.117M471.672 217.692H439.418M490.249 199.117H522.606M522.606 199.117L541.183 180.542V148.19M522.606 199.117V166.764H490.351M217.412 310.77L268.244 292.196M217.412 310.77L235.989 292.196M217.412 310.77H185.157M217.412 310.77V278.418H185.157M268.244 292.196H235.989M268.244 292.196L319.075 273.621H286.821L268.244 292.196ZM235.989 292.196V259.843M268.244 292.094L286.821 273.519M268.244 292.094V259.741H235.989L254.566 241.166H286.821M64.8149 366.495H97.0695V398.848L115.647 380.273V347.92M64.8149 366.495L83.3919 347.92M64.8149 366.495V334.142H32.5603L51.1373 315.567H83.3919M83.3919 347.92H115.647M83.3919 347.92V315.567M115.647 347.92L166.478 329.345M115.647 347.92L134.224 329.345M115.647 347.92V315.567H83.3919M166.478 329.345L217.31 310.77H185.055L166.478 329.345ZM166.478 329.345H134.224M166.58 329.345L185.157 310.77M166.58 329.345V296.992H134.326L152.903 278.418H185.157M185.157 310.77V278.418M134.224 329.345V296.992M420.84 236.369L471.672 217.794H439.418L420.84 236.369ZM420.84 236.369L370.009 254.944M420.84 236.369H388.586L370.009 254.944M420.84 236.267L439.418 217.692M420.84 236.267V203.914H388.586L407.163 185.339H439.418M439.418 217.692V185.339M286.821 273.519H319.075M286.821 273.519V241.166M319.075 273.519L369.907 254.944H337.652M319.075 273.519L337.652 254.944M319.075 273.519L337.754 254.944M319.075 273.519V241.166H286.821M370.009 254.944H337.754M337.652 254.944V222.591M337.652 254.944H337.754M490.351 166.764L541.183 148.19M490.351 166.764L508.928 148.19M490.351 166.764H458.097L439.52 185.339H471.774V217.692L490.351 199.117V166.764ZM490.351 166.764V134.412H458.097M541.183 148.19H508.928M508.928 148.19V115.837H476.674M439.418 185.441L490.249 166.867H457.995L439.418 185.441ZM439.418 185.441L388.586 204.016M439.418 185.441H407.163M185.157 278.418L235.989 259.843M185.157 278.418L203.734 259.843M185.157 278.418V246.065H152.903L171.48 227.49M235.989 259.843H203.734M235.989 259.843L286.821 241.268H254.566L235.989 259.843ZM203.734 259.843V227.49H171.48M32.5603 334.244L83.3919 315.669M32.5603 334.244L51.1373 315.669M32.5603 334.244V301.891H0.305664M83.3919 315.669H51.1373M83.3919 315.669L134.224 297.094H101.969L83.3919 315.669ZM51.1373 315.669V283.316M83.3919 315.567L101.969 296.992H134.224M134.224 296.992L185.055 278.418H152.801M134.224 296.992L152.801 278.418M134.224 296.992V264.64H101.969M152.801 278.418V246.065M388.586 204.016L407.163 185.441M388.586 204.016V171.663H356.331M407.163 185.441V153.088M439.418 185.339L457.995 166.764V134.514M439.418 185.339V153.088H407.163M286.821 241.166L337.652 222.591M286.821 241.166L305.398 222.591M286.821 241.166V208.813H254.566M337.652 222.591H305.398M305.398 222.591V190.238M457.995 134.514L508.826 115.939H476.674L457.995 134.514ZM457.995 134.514L407.163 153.088M457.995 134.514H425.74M458.097 134.412L476.674 115.837M458.097 134.412V102.059H425.842L444.419 83.4839M476.674 115.837V83.4839M407.163 153.088L425.74 134.514M407.163 153.088L356.331 171.663M407.163 153.088H374.908M407.163 153.088V120.736H374.908M425.74 134.514V102.161M152.801 246.065L203.632 227.49H171.48M152.801 246.065L171.48 227.49M152.801 246.065L101.969 264.64M152.801 246.065H120.546L101.969 264.64M0.305664 301.891L51.1373 283.316M0.305664 301.891L18.8827 283.316H51.1373M356.331 171.663L374.908 153.088M356.331 171.663H324.077M356.331 171.663V204.016L337.754 222.591V190.238H305.5M356.331 171.663V139.31H324.077M374.908 153.088V120.736M305.398 190.238L356.229 171.663H323.975L305.398 190.238ZM305.398 190.238H273.143M305.5 190.238L324.077 171.663M305.5 190.238V157.885H273.245M324.077 171.663V139.31M254.566 208.813L273.143 190.238M254.566 208.813V176.562H222.311M273.143 190.238V157.987M425.74 102.161L476.674 83.4839M425.74 102.161L444.419 83.4839M425.74 102.161L374.908 120.736M425.74 102.161H393.485M476.674 83.4839H444.419M374.908 120.736L393.485 102.161M374.908 120.736L324.077 139.31M374.908 120.736H342.654M374.908 120.736V88.3828H342.654M393.485 102.161V69.8079M324.077 139.31L342.654 120.736M324.077 139.31H291.822M324.077 139.31V106.958H291.822M342.654 120.736V88.3828M273.143 157.987L323.975 139.413H291.72L273.143 157.987ZM273.143 157.987L222.311 176.562M273.143 157.987H240.888M273.245 157.885L291.822 139.31M273.245 157.885V125.532H240.888L259.465 106.958H291.72V139.31H291.822M222.311 176.562L240.888 157.987M222.311 176.562V144.209H190.057M240.888 157.987V125.634M342.654 88.3828L393.485 69.8079M342.654 88.3828L361.231 69.8079M342.654 88.3828L291.822 106.958M342.654 88.3828H310.399M342.654 88.3828V56.0299H310.399M393.485 69.8079H361.231M361.231 69.8079V37.4551M291.822 106.958L310.399 88.3828M291.822 106.958V74.7068H259.567M310.399 88.3828V56.132M240.888 125.634L291.72 107.06H259.465L240.888 125.634ZM240.888 125.634L190.057 144.209M240.888 125.634H208.634L190.057 144.209M412.164 18.8802L462.996 0.30542M412.164 18.8802L430.741 0.30542H462.996M412.164 18.8802H444.419V51.131L462.996 32.5562V0.30542M310.399 56.0299L361.231 37.4551M310.399 56.0299L328.976 37.4551H361.231M259.567 74.7068L310.399 56.132M259.567 74.7068L278.144 56.132H310.399M230.987 394.051L281.819 375.476H249.564L230.987 394.051ZM383.584 338.224L434.416 319.65H402.161L383.584 338.224ZM434.518 351.9L415.941 370.475V338.122H383.686L402.263 319.548H434.518V351.9ZM249.667 343.123L300.498 324.548H268.244L249.667 343.123ZM453.095 268.722L503.927 250.147H471.672L453.095 268.722ZM64.8149 366.597L115.647 348.022H83.3919L64.8149 366.597ZM254.566 208.915L305.398 190.34H273.143L254.566 208.915Z" stroke="#48484C" stroke-width="0.5" stroke-miterlimit="10" stroke-linecap="round" stroke-linejoin="round"/>
</svg>
