<svg width="388" height="473" viewBox="0 0 388 473" fill="none" xmlns="http://www.w3.org/2000/svg">
<path d="M191.856 437.732L245.706 418.057M191.856 437.732L211.536 418.057H245.706M191.856 437.732H226.026V472L245.706 452.325V418.057M245.49 417.949H279.66V452.217L299.341 432.543V398.274M245.49 417.949L265.17 398.274M245.49 417.949V383.681H211.32L231 364.006H265.17M265.17 398.274H299.341M265.17 398.274V364.006M299.341 398.274L319.021 378.6V344.332M299.341 398.274V364.006H265.17M265.17 364.006L284.851 344.332M265.17 364.006V329.738H231L250.68 310.063H284.851M284.851 344.332H319.021M284.851 344.332V310.063M319.021 344.332L372.871 324.657M319.021 344.332L338.701 324.657M319.021 344.332H353.191V378.6L372.871 358.925V324.657M319.021 344.332V310.063H284.851M211.212 383.789L265.062 364.114H231M211.212 383.789L231 364.114M211.212 383.789L157.361 403.463M211.212 383.789H177.042M211.212 383.789V418.057L191.531 437.732V403.463H157.361M231 364.114L211.32 383.789V349.521H177.15M231 364.114V329.846M157.361 403.463L177.042 383.789M157.361 403.463V369.195H123.191M177.042 383.789V349.521M480.681 285.2H514.851V319.468L534.531 299.794V265.525M480.681 285.2L500.361 265.525M480.681 285.2V250.932H446.51M500.361 265.525H534.531M500.361 265.525V231.257M534.531 265.525L554.32 245.851V211.583M534.531 265.525V231.257H500.361M372.871 324.657H338.701M372.871 324.657L426.722 304.983H392.552L372.871 324.657ZM338.701 324.657V290.389M372.98 324.657H407.15V358.925L426.83 339.251V304.983M372.98 324.657L392.66 304.983M372.98 324.657V290.389H338.809L358.49 270.714M392.66 304.983H426.83M392.66 304.983V270.714M426.83 304.983L446.51 285.308V251.04M426.83 304.983V270.714H392.66M500.361 231.257L554.212 211.583H520.041M500.361 231.257L520.041 211.583M500.361 231.257H466.191M520.041 211.583H554.32M554.32 211.583L574 191.908V157.64M554.32 211.583V177.314H520.149M231 329.846L284.851 310.171M231 329.846L250.68 310.171M231 329.846H196.83M231 329.846V295.578H196.83M284.851 310.171H250.68M284.851 310.171L338.701 290.497H304.531L284.851 310.171ZM250.68 310.171V275.903M284.851 310.063L304.531 290.389M284.851 310.063V275.795H250.68L270.361 256.12H304.531M69.3404 388.87H103.511V423.138L123.191 403.463V369.195M69.3404 388.87L89.0208 369.195M69.3404 388.87V354.601H35.1702L54.8505 334.927H89.0208M89.0208 369.195H123.191M89.0208 369.195V334.927M123.191 369.195L177.042 349.521M123.191 369.195L142.871 349.521M123.191 369.195V334.927H89.0208M177.042 349.521L230.892 329.846H196.722L177.042 349.521ZM177.042 349.521H142.871M177.15 349.521L196.83 329.846M177.15 349.521V315.252H142.979L162.66 295.578H196.83M196.83 329.846V295.578M142.871 349.521V315.252M446.51 251.04L500.361 231.365H466.191L446.51 251.04ZM446.51 251.04L392.66 270.714M446.51 251.04H412.34L392.66 270.714M446.51 250.932L466.191 231.257M446.51 250.932V216.663H412.34L432.021 196.989H466.191M466.191 231.257V196.989M304.531 290.389H338.701M304.531 290.389V256.12M338.701 290.389L392.552 270.714H358.382M338.701 290.389L358.382 270.714M338.701 290.389L358.49 270.714M338.701 290.389V256.12H304.531M392.66 270.714H358.49M358.382 270.714V236.446M358.382 270.714H358.49M520.149 177.314L574 157.64M520.149 177.314L539.83 157.64M520.149 177.314H485.979L466.299 196.989H500.469V231.257L520.149 211.583V177.314ZM520.149 177.314V143.046H485.979M574 157.64H539.83M539.83 157.64V123.371H505.66M466.191 197.097L520.041 177.422H485.871L466.191 197.097ZM466.191 197.097L412.34 216.771M466.191 197.097H432.021M196.83 295.578L250.68 275.903M196.83 295.578L216.51 275.903M196.83 295.578V261.309H162.66L182.34 241.635M250.68 275.903H216.51M250.68 275.903L304.531 256.229H270.361L250.68 275.903ZM216.51 275.903V241.635H182.34M35.1702 354.709L89.0208 335.035M35.1702 354.709L54.8505 335.035M35.1702 354.709V320.441H1M89.0208 335.035H54.8505M89.0208 335.035L142.871 315.36H108.701L89.0208 335.035ZM54.8505 335.035V300.767M89.0208 334.927L108.701 315.252H142.871M142.871 315.252L196.722 295.578H162.552M142.871 315.252L162.552 295.578M142.871 315.252V280.984H108.701M162.552 295.578V261.309M412.34 216.771L432.021 197.097M412.34 216.771V182.503H378.17M432.021 197.097V162.829M466.191 196.989L485.871 177.314V143.154M466.191 196.989V162.829H432.021M304.531 256.12L358.382 236.446M304.531 256.12L324.211 236.446M304.531 256.12V221.852H270.361M358.382 236.446H324.211M324.211 236.446V202.178M485.871 143.154L539.722 123.479H505.66L485.871 143.154ZM485.871 143.154L432.021 162.829M485.871 143.154H451.701M485.979 143.046L505.66 123.371M485.979 143.046V108.778H451.809L471.489 89.1031M505.66 123.371V89.1031M432.021 162.829L451.701 143.154M432.021 162.829L378.17 182.503M432.021 162.829H397.85M432.021 162.829V128.56H397.85M451.701 143.154V108.886M162.552 261.309L216.402 241.635H182.34M162.552 261.309L182.34 241.635M162.552 261.309L108.701 280.984M162.552 261.309H128.381L108.701 280.984M1 320.441L54.8505 300.767M1 320.441L20.6803 300.767H54.8505M378.17 182.503L397.85 162.829M378.17 182.503H344M378.17 182.503V216.771L358.49 236.446V202.178H324.319M378.17 182.503V148.235H344M397.85 162.829V128.56M324.211 202.178L378.062 182.503H343.892L324.211 202.178ZM324.211 202.178H290.041M324.319 202.178L344 182.503M324.319 202.178V167.909H290.149M344 182.503V148.235M270.361 221.852L290.041 202.178M270.361 221.852V187.692H236.191M290.041 202.178V168.017M451.701 108.886L505.66 89.1031M451.701 108.886L471.489 89.1031M451.701 108.886L397.85 128.56M451.701 108.886H417.531M505.66 89.1031H471.489M397.85 128.56L417.531 108.886M397.85 128.56L344 148.235M397.85 128.56H363.68M397.85 128.56V94.2919H363.68M417.531 108.886V74.6174M344 148.235L363.68 128.56M344 148.235H309.83M344 148.235V113.966H309.83M363.68 128.56V94.2919M290.041 168.017L343.892 148.343H309.721L290.041 168.017ZM290.041 168.017L236.191 187.692M290.041 168.017H255.871M290.149 167.909L309.83 148.235M290.149 167.909V133.641H255.871L275.551 113.966H309.721V148.235H309.83M236.191 187.692L255.871 168.017M236.191 187.692V153.424H202.02M255.871 168.017V133.749M363.68 94.2919L417.531 74.6174M363.68 94.2919L383.36 74.6174M363.68 94.2919L309.83 113.966M363.68 94.2919H329.51M363.68 94.2919V60.0236H329.51M417.531 74.6174H383.36M383.36 74.6174V40.3491M309.83 113.966L329.51 94.2919M309.83 113.966V79.8063H275.659M329.51 94.2919V60.1317M255.871 133.749L309.721 114.075H275.551L255.871 133.749ZM255.871 133.749L202.02 153.424M255.871 133.749H221.701L202.02 153.424M437.319 20.6745L491.17 1M437.319 20.6745L456.999 1H491.17M437.319 20.6745H471.489V54.8347L491.17 35.1602V1M329.51 60.0236L383.36 40.3491M329.51 60.0236L349.19 40.3491H383.36M275.659 79.8063L329.51 60.1317M275.659 79.8063L295.34 60.1317H329.51M245.382 418.057L299.232 398.383H265.062L245.382 418.057ZM407.042 358.925L460.892 339.251H426.722L407.042 358.925ZM461 373.411L441.32 393.086V358.817H407.15L426.83 339.143H461V373.411ZM265.17 364.114L319.021 344.44H284.851L265.17 364.114ZM480.681 285.308L534.531 265.633H500.361L480.681 285.308ZM69.3404 388.978L123.191 369.303H89.0208L69.3404 388.978ZM270.361 221.96L324.211 202.286H290.041L270.361 221.96Z" stroke="white" stroke-miterlimit="10" stroke-linecap="round" stroke-linejoin="round"/>
</svg>
