<svg width="31" height="32" viewBox="0 0 31 32" fill="none" xmlns="http://www.w3.org/2000/svg">
<path d="M30.1871 22.7987L25.8519 18.4635C24.3035 16.9152 21.6714 17.5346 21.0521 19.5473C20.5876 20.9408 19.0393 21.715 17.6459 21.4053C14.5492 20.6311 10.3688 16.6055 9.59468 13.3541C9.13019 11.9606 10.0592 10.4123 11.4526 9.94784C13.4654 9.32852 14.0848 6.69641 12.5365 5.1481L8.20121 0.812859C6.96257 -0.270953 5.10461 -0.270953 4.0208 0.812859L1.07902 3.75463C-1.86275 6.85124 1.38868 15.0572 8.6657 22.3343C15.9427 29.6113 24.1487 33.0176 27.2453 29.9209L30.1871 26.9792C31.271 25.7405 31.271 23.8826 30.1871 22.7987Z" fill="white"/>
</svg>
