<svg width="80" height="80" viewBox="0 0 80 80" fill="none" xmlns="http://www.w3.org/2000/svg">
<path d="M79.8659 12.092C79.6667 11.5261 79.1609 11.1242 78.5647 11.058L69.8634 10.0912L68.8967 1.38999C68.8303 0.792333 68.4269 0.285927 67.8592 0.0874895C67.2917 -0.110792 66.6606 0.034052 66.2363 0.460146C66.0464 0.650615 68.0119 -1.32204 53.843 12.8987C48.4116 9.77186 42.2542 8.12499 35.9375 8.12499C16.0761 8.12499 0 24.1986 0 44.0625C0 63.9237 16.0736 80 35.9375 80C55.7989 80 71.875 63.9264 71.875 44.0625C71.875 37.7458 70.2281 31.5886 67.1014 26.157C78.4631 14.7534 79.4541 13.7587 79.4981 13.7147C79.4916 13.7212 79.4713 13.7417 79.4997 13.7131C79.9228 13.2878 80.0653 12.6578 79.8659 12.092ZM66.1508 4.97577C66.1473 4.97921 66.1363 4.99046 66.1322 4.99452C66.1345 4.99202 66.1403 4.98624 66.1508 4.97577ZM66.1508 4.97577L66.8127 10.9333C65.1995 12.5486 57.3117 20.4475 56.5816 21.1787L55.9222 15.2392C65.2617 5.8678 66.1208 5.00593 66.1508 4.97577ZM26.7506 31.3083C27.1737 32.0603 28.1264 32.3272 28.8786 31.9041C31.188 30.605 33.4309 30 35.9375 30C39.1587 30 42.2169 31.0839 44.7016 33.0751L40.2406 37.5423C38.9747 36.7019 37.4906 36.2501 35.9377 36.2501C31.6298 36.2501 28.1252 39.7548 28.1252 44.0626C28.1252 48.3705 31.6298 51.8751 35.9377 51.8751C40.2455 51.8751 43.7502 48.3705 43.7502 44.0626C43.7502 42.5051 43.2961 41.0176 42.452 39.7501L46.9127 35.2831C48.9119 37.7706 50.0002 40.8342 50.0002 44.0626C50.0002 51.8167 43.6917 58.1251 35.9377 58.1251C28.1836 58.1251 21.8752 51.8167 21.8752 44.0626C21.8752 42.7189 22.0381 41.7425 22.283 40.69C22.4784 39.8495 21.9555 39.0097 21.115 38.8142C20.2748 38.6187 19.4348 39.1417 19.2392 39.9822C18.8919 41.4758 18.7502 42.658 18.7502 44.0626C18.7502 53.5398 26.4605 61.2501 35.9377 61.2501C45.4148 61.2501 53.1252 53.5398 53.1252 44.0626C53.1252 39.9978 51.7173 36.1462 49.1331 33.0594L53.5583 28.6278C57.9852 33.6706 60.0284 40.3023 59.1847 47.0578C57.6916 58.7117 47.6977 67.5 35.9375 67.5C23.0141 67.5 12.5 56.9859 12.5 44.0625C12.5 31.1391 23.0141 20.625 35.9375 20.625C41.6589 20.625 47.073 22.6725 51.3481 26.4192L46.922 30.8514C43.8384 28.2773 39.9934 26.875 35.9375 26.875C32.9144 26.875 30.1042 27.6291 27.3464 29.1803C26.5944 29.6034 26.3275 30.5561 26.7506 31.3083ZM34.8333 45.1681C35.4408 45.7748 36.4302 45.7801 37.043 45.1666L40.1661 42.0389C40.4663 42.6626 40.625 43.3503 40.625 44.0625C40.625 46.6472 38.5222 48.75 35.9375 48.75C33.3528 48.75 31.25 46.6472 31.25 44.0625C31.25 41.4778 33.3528 39.375 35.9375 39.375C36.647 39.375 37.3327 39.5326 37.955 39.8309L34.8317 42.9584C34.222 43.569 34.2227 44.5583 34.8333 45.1681ZM68.75 44.0625C68.75 62.1553 54.0303 76.875 35.9375 76.875C17.8447 76.875 3.125 62.1553 3.125 44.0625C3.125 25.9697 17.8445 11.25 35.9375 11.25C41.9281 11.25 47.7608 12.8711 52.8558 15.9434L53.7519 24.0122L53.5603 24.2039C48.6914 19.8705 42.4928 17.5 35.9375 17.5C21.2909 17.5 9.375 29.4159 9.375 44.0625C9.375 58.7091 21.2909 70.625 35.9375 70.625C49.2655 70.625 60.592 60.6641 62.2848 47.4498C63.2495 39.7245 60.8842 32.1437 55.7717 26.4108L55.9398 26.2425L64.0563 27.1437C67.1288 32.2389 68.75 38.0716 68.75 44.0625ZM64.7611 24.0778L58.7666 23.412C61.7353 20.4395 62.2481 19.9261 62.2786 19.8956C62.2398 19.9345 61.1439 21.0317 69.0231 13.142L74.9984 13.8058C74.7709 14.0342 76.7717 12.0267 64.7611 24.0778Z" fill="#A7A7A7"/>
</svg>
