<svg width="80" height="80" viewBox="0 0 80 80" fill="none" xmlns="http://www.w3.org/2000/svg">
<path d="M60.5325 26.9012C60.3424 26.4481 60.1094 26.021 59.8383 25.625H63.9061C67.8692 25.625 71.0936 22.4006 71.0936 18.4375C71.0936 14.4743 67.8692 11.25 63.9061 11.25H51.3937C52.1891 10.0934 52.6562 8.6942 52.6562 7.18749C52.6562 3.22437 49.4318 0 45.4687 0H7.18749C3.22437 0 0 3.22437 0 7.18749C0 11.1506 3.22437 14.375 7.18749 14.375H19.7C18.9045 15.5315 18.4375 16.9307 18.4375 18.4375C18.4375 19.9442 18.9043 21.3434 19.7 22.5H15.625C11.6619 22.5 8.43748 25.7243 8.43748 29.6874C8.43748 31.9635 9.50217 33.9946 11.1586 35.3124C9.50217 36.6302 8.43748 38.6613 8.43748 40.9374C8.43748 43.2135 9.50217 45.2446 11.1586 46.5624C9.50217 47.8802 8.43748 49.9113 8.43748 52.1874C8.43748 54.4635 9.50217 56.4946 11.1586 57.8124C9.50217 59.1302 8.43748 61.1613 8.43748 63.4374C8.43748 67.4005 11.6619 70.6249 15.625 70.6249H34.039C38.8899 75.8134 45.7909 79.0625 53.4376 79.0625C68.0841 79.0625 80 67.1466 80 52.5001C80 40.3099 71.7453 30.0129 60.5325 26.9012ZM63.9061 14.375C66.1463 14.375 67.9686 16.1975 67.9686 18.4375C67.9686 20.6775 66.1463 22.5 63.9061 22.5H53.9061H25.625C23.3848 22.5 21.5625 20.6775 21.5625 18.4375C21.5625 16.1975 23.3848 14.375 25.625 14.375H63.9061ZM7.18749 11.25C4.94733 11.25 3.12499 9.42748 3.12499 7.18749C3.12499 4.94749 4.94733 3.12499 7.18749 3.12499H45.4687C47.7088 3.12499 49.5312 4.94749 49.5312 7.18749C49.5312 9.42748 47.7088 11.25 45.4687 11.25H7.18749ZM15.625 25.625H53.9061C54.5355 25.625 55.1382 25.7712 55.6788 26.0331C54.9397 25.971 54.1926 25.9376 53.4376 25.9376C46.1024 25.9376 39.4524 28.9265 34.6409 33.7499H15.625C13.385 33.7499 11.5625 31.9274 11.5625 29.6874C11.5625 27.4474 13.385 25.625 15.625 25.625ZM15.625 36.8749H31.971C30.1973 39.3051 28.8259 42.046 27.9549 44.9999H15.625C13.3848 44.9999 11.5625 43.1776 11.5625 40.9374C11.5625 38.6974 13.3848 36.8749 15.625 36.8749ZM15.625 48.1249H27.2374C27.0004 49.5488 26.8751 51.0099 26.8751 52.5001C26.8751 53.7729 26.9671 55.0244 27.141 56.2499H15.625C13.3848 56.2499 11.5625 54.4276 11.5625 52.1874C11.5625 49.9473 13.3848 48.1249 15.625 48.1249ZM15.625 67.4999C13.3848 67.4999 11.5625 65.6775 11.5625 63.4374C11.5625 61.1972 13.3848 59.3749 15.625 59.3749H27.779C28.5674 62.3144 29.8482 65.0539 31.5279 67.4999H15.625ZM53.4376 75.9375C40.5141 75.9375 30.0001 65.4235 30.0001 52.5001C30.0001 39.5766 40.5141 29.0626 53.4376 29.0626C66.361 29.0626 76.875 39.5766 76.875 52.5001C76.875 65.4235 66.361 75.9375 53.4376 75.9375Z" fill="#A7A7A7"/>
</svg>
