<svg width="357" height="216" viewBox="0 0 357 216" fill="none" xmlns="http://www.w3.org/2000/svg">
<path d="M87.1828 310.699L125.064 296.748M87.1828 310.699L101.027 296.748H125.064M87.1828 310.699H111.22V335L125.064 321.048V296.748M124.912 296.671H148.948V320.972L162.792 307.02V282.719M124.912 296.671L138.756 282.719M124.912 296.671V272.37H100.875L114.719 258.418H138.756M138.756 282.719H162.792M138.756 282.719V258.418M162.792 282.719L176.636 268.767V244.467M162.792 282.719V258.418H138.756M138.756 258.418L152.6 244.467M138.756 258.418V234.118H114.719L128.563 220.166H152.6M152.6 244.467H176.636M152.6 244.467V220.166M176.636 244.467L214.517 230.515M176.636 244.467L190.48 230.515M176.636 244.467H200.673V268.767L214.517 254.815V230.515M176.636 244.467V220.166H152.6M100.799 272.447L138.679 258.495H114.719M100.799 272.447L114.719 258.495M100.799 272.447L62.9177 286.399M100.799 272.447H76.7617M100.799 272.447V296.748L86.9546 310.699V286.399H62.9177M114.719 258.495L100.875 272.447V248.146H76.8378M114.719 258.495V234.194M62.9177 286.399L76.7617 272.447M62.9177 286.399V262.098H38.8809M76.7617 272.447V248.146M290.355 202.535H314.392V226.835L328.236 212.883V188.583M290.355 202.535L304.199 188.583M290.355 202.535V178.234H266.318M304.199 188.583H328.236M304.199 188.583V164.282M328.236 188.583L342.156 174.631V150.33M328.236 188.583V164.282H304.199M214.517 230.515H190.48M214.517 230.515L252.398 216.563H228.361L214.517 230.515ZM190.48 230.515V206.214M214.593 230.515H238.63V254.815L252.474 240.864V216.563M214.593 230.515L228.437 216.563M214.593 230.515V206.214H190.557L204.4 192.262M228.437 216.563H252.474M228.437 216.563V192.262M252.474 216.563L266.318 202.611V178.311M252.474 216.563V192.262H228.437M304.199 164.282L342.08 150.33H318.043M304.199 164.282L318.043 150.33M304.199 164.282H280.162M318.043 150.33H342.156M342.156 150.33L356 136.378V112.078M342.156 150.33V126.03H318.119M114.719 234.194L152.6 220.243M114.719 234.194L128.563 220.243M114.719 234.194H90.6818M114.719 234.194V209.894H90.6818M152.6 220.243H128.563M152.6 220.243L190.48 206.291H166.444L152.6 220.243ZM128.563 220.243V195.942M152.6 220.166L166.444 206.214M152.6 220.166V195.865H128.563L142.407 181.913H166.444M38.8809 262.098H14.844L1 276.05H25.0368V300.35L38.8809 286.399V262.098ZM38.8809 262.098L76.7617 248.146M38.8809 262.098L52.7249 248.146M38.8809 262.098V237.797M76.7617 248.146L114.643 234.194H90.6058L76.7617 248.146ZM76.7617 248.146H52.7249M76.8378 248.146L90.6818 234.194M76.8378 248.146V223.846H52.8009L66.645 209.894H90.6818M90.6818 234.194V209.894M52.7249 248.146V223.846M266.318 178.311L304.199 164.359H280.162L266.318 178.311ZM266.318 178.311L228.437 192.262M266.318 178.311H242.281L228.437 192.262M266.318 178.234L280.162 164.282M266.318 178.234V153.933H242.281L256.125 139.981H280.162M280.162 164.282V139.981M166.444 206.214H190.48M166.444 206.214V181.913M190.48 206.214L228.361 192.262H204.324M190.48 206.214L204.324 192.262M190.48 206.214L204.4 192.262M190.48 206.214V181.913H166.444M228.437 192.262H204.4M204.324 192.262V167.962M204.324 192.262H204.4M318.119 126.03L356 112.078M318.119 126.03L331.963 112.078M318.119 126.03H294.082L280.238 139.981H304.275V164.282L318.119 150.33V126.03ZM318.119 126.03V101.729H294.082M356 112.078H331.963M331.963 112.078V87.7771H307.926M280.162 140.058L318.043 126.106H294.006L280.162 140.058ZM280.162 140.058L242.281 154.01M280.162 140.058H256.125M90.6818 209.894L128.563 195.942M90.6818 209.894L104.526 195.942M90.6818 209.894V185.593H66.645L80.489 171.641M128.563 195.942H104.526M128.563 195.942L166.444 181.99H142.407L128.563 195.942ZM104.526 195.942V171.641H80.489M52.7249 223.846L90.6058 209.894H66.5689M52.7249 223.846L66.5689 209.894M52.7249 223.846H28.688M52.7249 223.846V199.545H28.688M66.5689 209.894V185.593M242.281 154.01L256.125 140.058M242.281 154.01V129.709H218.245M256.125 140.058V115.757M280.162 139.981L294.006 126.03V101.806M280.162 139.981V115.757H256.125M166.444 181.913L204.324 167.962M166.444 181.913L180.288 167.962M166.444 181.913V157.613H142.407M204.324 167.962H180.288M180.288 167.962V143.661M294.006 101.806L331.887 87.8538H307.926L294.006 101.806ZM294.006 101.806L256.125 115.757M294.006 101.806H269.969M294.082 101.729L307.926 87.7771M294.082 101.729V77.4283H270.045L283.889 63.4765M307.926 87.7771V63.4765M256.125 115.757L269.969 101.806M256.125 115.757L218.245 129.709M256.125 115.757H232.088M256.125 115.757V91.4567H232.088M269.969 101.806V77.5049M66.5689 185.593L104.45 171.641H80.489M66.5689 185.593L80.489 171.641M66.5689 185.593L28.688 199.545M66.5689 185.593H42.532L28.688 199.545M218.245 129.709L232.088 115.757M218.245 129.709H194.208M218.245 129.709V154.01L204.4 167.962V143.661H180.364M218.245 129.709V105.409H194.208M232.088 115.757V91.4567M180.288 143.661L218.168 129.709H194.132L180.288 143.661ZM180.288 143.661H156.251M180.364 143.661L194.208 129.709M180.364 143.661V119.36H156.327M194.208 129.709V105.409M142.407 157.613L156.251 143.661M142.407 157.613V133.389H118.37M156.251 143.661V119.437M269.969 77.5049L307.926 63.4765M269.969 77.5049L283.889 63.4765M269.969 77.5049L232.088 91.4567M269.969 77.5049H245.933M307.926 63.4765H283.889M232.088 91.4567L245.933 77.5049M232.088 91.4567L194.208 105.409M232.088 91.4567H208.052M232.088 91.4567V67.1561H208.052M245.933 77.5049V53.2043M194.208 105.409L208.052 91.4567M194.208 105.409H170.171M194.208 105.409V81.1079H170.171M208.052 91.4567V67.1561M156.251 119.437L194.132 105.485H170.095L156.251 119.437ZM156.251 119.437L118.37 133.389M156.251 119.437H132.214M156.327 119.36L170.171 105.409M156.327 119.36V95.0597H132.214L146.058 81.1079H170.095V105.409H170.171M118.37 133.389L132.214 119.437M118.37 133.389V109.088H94.333M132.214 119.437V95.1363M208.052 67.1561L245.933 53.2043M208.052 67.1561L221.896 53.2043M208.052 67.1561L170.171 81.1079M208.052 67.1561H184.015M208.052 67.1561V42.8554H184.015M245.933 53.2043H221.896M221.896 53.2043V28.9036M170.171 81.1079L184.015 67.1561M170.171 81.1079V56.8839H146.134M184.015 67.1561V42.9321M132.214 95.1363L170.095 81.1845H146.058L132.214 95.1363ZM132.214 95.1363L94.333 109.088M132.214 95.1363H108.177L94.333 109.088M259.853 14.9518L297.733 1M259.853 14.9518L273.697 1H297.733M259.853 14.9518H283.889V39.1758L297.733 25.224V1M184.015 42.8554L221.896 28.9036M184.015 42.8554L197.859 28.9036H221.896M146.134 56.8839L184.015 42.9321M146.134 56.8839L159.978 42.9321H184.015M124.835 296.748L162.716 282.796H138.679L124.835 296.748ZM238.554 254.815L276.435 240.864H252.398L238.554 254.815ZM276.511 265.088L262.667 279.039V254.739H238.63L252.474 240.787H276.511V265.088ZM138.756 258.495L176.636 244.543H152.6L138.756 258.495ZM290.355 202.611L328.236 188.659H304.199L290.355 202.611ZM1 276.126L38.8809 262.175H14.844L1 276.126ZM14.844 237.874L52.7249 223.922H28.688L14.844 237.874ZM142.407 157.689L180.288 143.738H156.251L142.407 157.689Z" stroke="white" stroke-width="0.5" stroke-miterlimit="10" stroke-linecap="round" stroke-linejoin="round"/>
</svg>
