<svg width="24" height="14" viewBox="0 0 24 14" fill="none" xmlns="http://www.w3.org/2000/svg">
<path d="M19.9157 8.02828C19.5277 7.53826 19.6387 7.32025 19.9157 6.88224C19.9207 6.87724 23.1238 2.45108 23.4538 0.950033L23.4558 0.949033C23.6198 0.402014 23.4558 0 22.6628 0H20.0387C19.3707 0 19.0627 0.345012 18.8977 0.731025C18.8977 0.731025 17.5616 3.92914 15.6715 6.00221C15.0615 6.60123 14.7795 6.79324 14.4465 6.79324C14.2825 6.79324 14.0275 6.60123 14.0275 6.05421V0.949033C14.0275 0.29301 13.8405 0 13.2875 0H9.16132C8.7423 0 8.49329 0.306011 8.49329 0.591021C8.49329 1.21304 9.43833 1.35605 9.53633 3.10611V6.90324C9.53633 7.73527 9.38533 7.88827 9.05031 7.88827C8.15828 7.88827 5.99321 4.67716 4.71016 1.00203C4.45115 0.28901 4.19815 0.000999962 3.52512 0.000999962H0.900031C0.151005 0.000999962 0 0.346012 0 0.732025C0 1.41405 0.892031 4.80517 4.14814 9.28532C6.31822 12.3434 9.37433 14.0005 12.1544 14.0005C13.8255 14.0005 14.0295 13.6325 14.0295 12.9995C14.0295 10.0774 13.8785 9.80134 14.7155 9.80134C15.1035 9.80134 15.7715 9.99335 17.3316 11.4684C19.1147 13.2175 19.4077 14.0005 20.4057 14.0005H23.0298C23.7778 14.0005 24.1568 13.6325 23.9388 12.9064C23.4398 11.3794 20.0677 8.23829 19.9157 8.02828Z" fill="white"/>
</svg>
