<svg width="24" height="17" viewBox="0 0 24 17" fill="none" xmlns="http://www.w3.org/2000/svg">
<path d="M23.469 2.42898L23.499 2.62498C23.209 1.59599 22.426 0.802004 21.431 0.513008L21.41 0.508008C19.5391 1.37089e-05 12.0101 1.38199e-05 12.0101 1.38199e-05C12.0101 1.38199e-05 4.50024 -0.00998616 2.61026 0.508008C1.59627 0.802004 0.812284 1.59599 0.527288 2.60398L0.522288 2.62498C-0.176704 6.27594 -0.181704 10.6629 0.553287 14.5718L0.522288 14.3738C0.812284 15.4028 1.59527 16.1968 2.59026 16.4858L2.61126 16.4908C4.48024 16.9998 12.0111 16.9998 12.0111 16.9998C12.0111 16.9998 19.5201 16.9998 21.411 16.4908C22.426 16.1968 23.21 15.4028 23.495 14.3948L23.5 14.3738C23.818 12.6759 24 10.7219 24 8.72591C24 8.65291 24 8.57891 23.999 8.50491C24 8.43691 24 8.35591 24 8.27491C24 6.27794 23.818 4.32396 23.469 2.42898ZM9.60818 12.1509V4.85795L15.8741 8.50991L9.60818 12.1509Z" fill="white"/>
</svg>
